<?xml version="1.0" encoding="utf-8"?>
<!-- Generator: Adobe Illustrator 16.0.0, SVG Export Plug-In . SVG Version: 6.00 Build 0)  -->
<!DOCTYPE svg PUBLIC "-//W3C//DTD SVG 1.1//EN" "http://www.w3.org/Graphics/SVG/1.1/DTD/svg11.dtd">
<svg version="1.1" id="Layer_6" xmlns="http://www.w3.org/2000/svg" xmlns:xlink="http://www.w3.org/1999/xlink" x="0px" y="0px"
	 width="67px" height="32px" viewBox="0 0 67 32" style="enable-background:new 0 0 67 32;" xml:space="preserve">
<style type="text/css">
<![CDATA[
	.st0{fill:#FFFFFF;}
	.st1{fill:#3FC380;}
]]>
</style>
<g id="Layer_1_copy">
</g>
<g id="Layer_4">
</g>
<g id="Layer_3">
</g>
<g id="Layer_1_copy_2">
</g>
<g id="Layer_1">
	<g>
		<polygon class="st0" points="28,7.7 17.3,31 27.3,31 33,18.6 		"/>
		<polygon class="st1" points="38.5,6.5 36,1 31,1 26,1 28.5,6.5 28,7.7 33,18.6 33,18.6 33.5,17.4 		"/>
		<path d="M50.7,30.6L39.6,6.5l2.3-5L42.6,0H41h-4.4H36h-5h-5h-1.6l0.6,1.4l2.3,5l0,0L16.3,30.6L15.7,32h1.6h10h0.6l0.3-0.6
			l5.3-11.7l5.3,11.7l0.3,0.6h0.6h10h1.6L50.7,30.6z M33,18.6L27.3,31h-10L28,7.7l0.5-1.2L26,1h5h5l2.5,5.5l-5,10.9L33,18.6z"/>
	</g>
</g>
<g id="Layer_7">
	<g>
		<polygon class="st0" points="62.3,13.2 52.2,8.5 52.2,13.1 57.3,15.4 		"/>
		<polygon class="st1" points="58.5,16 63.5,18.3 66,17.1 66,14.9 66,12.6 63.5,13.7 62.3,13.2 57.3,15.4 		"/>
		<path d="M65.6,11.6l-0.2,0.1l-1.9,0.9l0,0l-10.9-5L51.2,7v1.6v4.6v0.6l0.6,0.3l4.3,2l-4.3,2l-0.6,0.3v0.6v4.6V25l1.4-0.6l10.9-5
			l2.1,1L67,21v-1.6v-1.7v-0.6v-2.3v-2.3V11L65.6,11.6z M52.2,8.5l10.1,4.6l1.2,0.6l2.5-1.1v2.3v2.3l-2.5,1.1l-5-2.3l-1.2-0.5
			l-5.1-2.3V8.5z"/>
	</g>
</g>
<g id="Layer_7_copy">
	<g>
		<polygon class="st0" points="4.7,18.8 14.8,23.5 14.8,18.9 9.7,16.6 		"/>
		<polygon class="st1" points="8.5,16 3.5,13.7 1,14.9 1,17.1 1,19.4 3.5,18.3 4.7,18.8 9.7,16.6 		"/>
		<path d="M1.4,20.4l0.2-0.1l1.9-0.9l0,0l10.9,5l1.4,0.6v-1.6v-4.6v-0.6L15.2,18l-4.3-2l4.3-2l0.6-0.3v-0.6V8.5V7l-1.4,0.6l-10.9,5
			l-2.1-1L0,11v1.6v1.7v0.6v2.3v2.3V21L1.4,20.4z M14.8,23.5L4.7,18.8l-1.2-0.6L1,19.4v-2.3v-2.3l2.5-1.1l5,2.3l1.2,0.5l5.1,2.3
			V23.5z"/>
	</g>
</g>
</svg>
